# Blender v2.80 (sub 57) OBJ File: 'MainCar.blend'
# www.blender.org
o Cannon_Cube.004
v 3.497777 0.903033 -0.464392
v 3.497777 1.521336 -0.464392
v 3.497777 0.903033 0.379938
v 3.497777 1.521336 0.379938
v 3.497777 1.212185 -0.623639
v 3.497777 1.212185 0.539186
v 3.497777 0.786417 -0.042227
v 3.497777 1.637953 -0.042227
v 6.200313 1.025096 -0.297707
v 5.611289 0.903033 -0.464392
v 5.611289 1.521336 -0.464392
v 6.200313 1.399273 -0.297707
v 6.282268 1.212185 -0.353991
v 6.200313 1.025096 0.213254
v 6.282268 0.983880 -0.042227
v 6.282268 1.440489 -0.042227
v 6.200313 1.399273 0.213254
v 6.282268 1.212185 0.269537
v 5.611289 0.903033 0.379938
v 5.611289 1.521336 0.379938
v 5.611289 1.212185 -0.623639
v 5.611289 1.212185 0.539186
v 5.611289 0.786417 -0.042227
v 5.611289 1.637953 -0.042227
v 6.111289 1.465767 -0.388509
v 6.220857 1.212185 -0.464392
v 6.111289 0.958602 -0.388509
v 6.111289 0.958602 0.304056
v 6.220857 0.903033 -0.042227
v 6.220857 1.521336 -0.042227
v 6.111289 1.465767 0.304056
v 6.220857 1.212185 0.379939
v 3.834923 1.212185 -0.353991
v 4.003450 1.212185 -0.042227
v 3.834923 1.440489 -0.042227
v 3.834923 1.212185 0.269537
v 3.834923 0.983880 -0.042227
v 3.752968 1.399273 -0.297707
v 3.752968 1.025096 -0.297707
v 3.752968 1.025096 0.213254
v 3.752968 1.399273 0.213254
v 6.613284 1.456016 -0.388509
v 6.722852 1.202434 -0.464392
v 6.613284 0.948851 0.304056
v 6.722852 0.893282 -0.042227
v 6.613284 0.948851 -0.388509
v 6.613284 1.456016 0.304056
v 6.722852 1.202434 0.379939
v 6.702308 1.389522 -0.297707
v 6.784263 1.202434 -0.353991
v 6.702308 1.015345 0.213254
v 6.784263 0.974129 -0.042227
v 6.702308 1.015345 -0.297707
v 6.702308 1.389522 0.213254
v 6.784263 1.202434 0.269537
v 5.306169 0.903033 -0.464392
v 5.306169 1.212185 -0.623639
v 5.306169 0.786417 -0.042227
v 5.306169 1.521336 -0.464392
v 5.306169 1.637953 -0.042227
v 5.306169 1.521336 0.379938
v 5.306169 1.212185 0.539186
v 5.306169 0.903033 0.379938
v 5.379344 1.212185 -0.765059
v 5.538114 1.212185 -0.765059
v 5.379344 0.682855 -0.042227
v 5.538114 0.682855 -0.042227
v 5.379344 0.827837 0.482624
v 5.538114 0.827837 0.482624
v 5.538114 1.596533 -0.567077
v 5.538114 0.827837 -0.567077
v 5.538114 1.596533 0.482624
v 5.538114 1.212185 0.680606
v 5.538114 1.741514 -0.042227
v 5.379344 0.827837 -0.567077
v 5.379344 1.596533 -0.567077
v 5.379344 1.741514 -0.042227
v 5.379344 1.596533 0.482624
v 5.379344 1.212185 0.680606
vt 0.264286 0.734875
vt 0.264286 0.646058
vt 0.292177 0.634280
vt 0.292177 0.744700
vt 0.907359 0.092279
vt 0.825980 0.122033
vt 0.810021 0.097537
vt 0.907783 0.066413
vt 0.200625 0.584125
vt 0.213032 0.557282
vt 0.757741 0.678228
vt 0.828290 0.728532
vt 0.821828 0.753581
vt 0.735848 0.697604
vt 0.112202 0.575764
vt 0.103102 0.546888
vt 0.120197 0.812443
vt 0.208619 0.804083
vt 0.222971 0.830742
vt 0.113041 0.841136
vt 0.713538 0.595788
vt 0.687491 0.602409
vt 0.761465 0.189767
vt 0.738113 0.176464
vt 0.713399 0.501338
vt 0.784285 0.484747
vt 0.798410 0.574058
vt 0.810226 0.634717
vt 0.260058 0.448099
vt 0.209547 0.459010
vt 0.207892 0.122118
vt 0.260058 0.112111
vt 0.055219 0.449616
vt 0.003474 0.461376
vt 0.000172 0.125403
vt 0.051917 0.113643
vt 0.384077 0.445639
vt 0.332218 0.456890
vt 0.311917 0.123362
vt 0.363775 0.112111
vt 0.158931 0.448596
vt 0.107186 0.460357
vt 0.103884 0.124384
vt 0.155629 0.112624
vt 0.865020 0.177924
vt 0.837513 0.233265
vt 0.803712 0.284811
vt 0.736238 0.280787
vt 0.868662 0.660217
vt 0.928130 0.168864
vt 0.700063 0.425143
vt 0.784070 0.425143
vt 0.893437 0.252554
vt 0.859635 0.304100
vt 0.136272 0.467751
vt 0.129367 0.470120
vt 0.259330 0.515388
vt 0.209867 0.524100
vt 0.130589 0.477262
vt 0.133843 0.546153
vt 0.110440 0.529248
vt 0.802996 0.425143
vt 0.804924 0.470219
vt 0.814152 0.319162
vt 0.808783 0.473023
vt 0.846257 0.490776
vt 0.838555 0.511644
vt 0.309730 0.473400
vt 0.286394 0.467457
vt 0.147020 0.060810
vt 0.207590 0.060742
vt 0.155512 0.008977
vt 0.207292 0.000172
vt 0.259157 0.008468
vt 0.268158 0.060215
vt 0.415633 0.459351
vt 0.415633 0.123362
vt 0.861762 0.518574
vt 0.875717 0.561898
vt 0.857448 0.570318
vt 0.278285 0.534930
vt 0.209977 0.546544
vt 0.160320 0.515874
vt 0.141559 0.535602
vt 0.908812 0.265525
vt 0.883850 0.303585
vt 0.133552 0.475079
vt 0.134941 0.505152
vt 0.285331 0.470845
vt 0.284602 0.504416
vt 0.949771 0.226097
vt 0.886660 0.235157
vt 0.381499 0.514559
vt 0.329641 0.525810
vt 0.846293 0.585289
vt 0.904729 0.610790
vt 0.820682 0.316169
vt 0.857959 0.316570
vt 0.058474 0.518507
vt 0.293072 0.492744
vt 0.290495 0.561664
vt 0.662512 0.533073
vt 0.662512 0.621890
vt 0.415977 0.621890
vt 0.415977 0.533073
vt 0.662512 0.444256
vt 0.415977 0.444256
vt 0.662512 0.355440
vt 0.415977 0.355440
vt 0.662512 0.266623
vt 0.415977 0.266623
vt 0.662512 0.710707
vt 0.415977 0.710707
vt 0.662512 0.088989
vt 0.662512 0.177806
vt 0.415977 0.177806
vt 0.415977 0.088989
vt 0.662512 0.000172
vt 0.415977 0.000172
vt 0.683963 0.494992
vt 0.673154 0.425143
vt 0.706174 0.279084
vt 0.044551 0.633313
vt 0.018996 0.618434
vt 0.046057 0.763539
vt 0.020867 0.780336
vt 0.029410 0.676296
vt 0.000172 0.671872
vt 0.978183 0.662695
vt 0.978183 0.552274
vt 0.999828 0.552274
vt 0.999828 0.662695
vt 0.978184 0.883535
vt 0.978183 0.773115
vt 0.999828 0.773115
vt 0.999828 0.883535
vt 0.978183 0.110593
vt 0.978183 0.000172
vt 0.999828 0.000172
vt 0.999828 0.110593
vt 0.978183 0.441854
vt 0.999828 0.441854
vt 0.978183 0.331434
vt 0.999828 0.331434
vt 0.978183 0.221013
vt 0.999828 0.221013
vn -0.4950 0.8689 0.0000
vn -0.5526 0.6642 0.5034
vn -0.4486 0.6864 0.5723
vn -0.4306 0.9025 0.0000
vn 0.5648 -0.8252 0.0000
vn 0.6329 -0.6124 0.4736
vn 0.4486 -0.6864 0.5723
vn 0.4306 -0.9025 0.0000
vn -0.6011 0.0000 0.7992
vn -0.4619 0.0000 0.8869
vn 0.6329 -0.6124 -0.4736
vn 0.4486 -0.6864 -0.5723
vn -0.5526 -0.6642 0.5034
vn -0.4486 -0.6864 0.5723
vn -0.6011 0.0000 -0.7992
vn -0.5526 0.6642 -0.5034
vn -0.4486 0.6864 -0.5723
vn -0.4619 0.0000 -0.8869
vn 0.6801 0.0000 -0.7331
vn 0.4619 0.0000 -0.8869
vn 0.6801 0.0000 0.7331
vn 0.4619 0.0000 0.8869
vn 0.6329 0.6124 -0.4736
vn 0.2499 0.7804 -0.5731
vn 0.3264 -0.2302 -0.9167
vn 0.2936 -0.7032 -0.6475
vn 0.3482 0.9368 -0.0323
vn 0.0116 0.9999 0.0000
vn 0.7770 0.6294 0.0000
vn 0.8451 0.3801 -0.3760
vn 0.4273 0.0980 0.8987
vn 0.9452 -0.3264 0.0000
vn 0.7770 -0.6294 0.0000
vn 0.8451 -0.3801 0.3760
vn 0.4273 0.0980 -0.8987
vn 0.2394 -0.6788 -0.6941
vn 0.6661 0.0000 -0.7458
vn 0.8451 -0.3801 -0.3760
vn 0.3482 0.9368 0.0323
vn 0.2394 -0.6788 0.6941
vn 0.6661 0.0000 0.7458
vn 0.8451 0.3801 0.3760
vn 0.2936 -0.7032 0.6475
vn 0.3264 -0.2302 0.9167
vn 0.2499 0.7804 0.5731
vn 0.6329 0.6124 0.4736
vn 0.0575 -0.9983 0.0000
vn 0.5648 0.8252 0.0000
vn 0.5542 0.8324 0.0000
vn 0.4942 -0.4443 0.7472
vn 0.2734 0.9049 0.3262
vn 0.7479 0.5094 0.4255
vn 0.9478 0.3189 0.0000
vn 0.4942 -0.4443 -0.7472
vn 0.8449 -0.4462 0.2951
vn 0.6478 0.4470 0.6169
vn 0.2734 0.9049 -0.3262
vn 1.0000 0.0000 0.0000
vn 0.2879 -0.2524 0.9238
vn 0.4853 -0.8743 0.0000
vn 0.7479 0.5094 -0.4255
vn 0.2879 -0.2524 -0.9238
vn 0.8449 -0.4462 -0.2951
vn 0.6478 0.4470 -0.6168
vn 0.0000 0.0000 1.0000
vn 0.0000 -0.7761 0.6306
vn 0.0000 0.7761 0.6306
vn 0.0000 1.0000 0.0000
vn 0.0000 0.7761 -0.6306
vn 0.0000 -1.0000 0.0000
vn -0.4950 -0.8689 0.0000
vn 0.0000 -0.7761 -0.6306
vn 0.0000 0.0000 -1.0000
vn -0.5526 -0.6642 -0.5034
vn 0.4486 0.6864 -0.5723
vn 0.4306 0.9025 0.0000
vn 0.4486 0.6864 0.5723
vn -0.4306 -0.9025 0.0000
vn -0.4486 -0.6864 -0.5723
s 1
f 60/1/1 61/2/2 78/3/3 77/4/4
f 23/5/5 19/6/6 69/7/7 67/8/8
f 61/2/2 62/9/9 79/10/10 78/3/3
f 10/11/11 23/12/5 67/13/8 71/14/12
f 62/9/9 63/15/13 68/16/14 79/10/10
f 57/17/15 59/18/16 76/19/17 64/20/18
f 21/21/19 10/11/11 71/14/12 65/22/20
f 19/6/6 22/23/21 73/24/22 69/7/7
f 21/21/19 11/25/23 25/26/24 26/27/25
f 10/11/11 21/21/19 26/27/25 27/28/26
f 14/29/27 15/30/28 37/31/29 40/32/30
f 12/33/31 16/34/32 35/35/33 38/36/34
f 17/37/35 18/38/36 36/39/37 41/40/38
f 9/41/39 13/42/40 33/43/41 39/44/42
f 28/45/43 32/46/44 22/23/21 19/6/6
f 32/46/44 31/47/45 20/48/46 22/23/21
f 10/11/11 27/28/26 29/49/47 23/12/5
f 23/5/5 29/50/47 28/45/43 19/6/6
f 25/26/24 11/25/23 24/51/48 30/52/49
f 30/52/49 24/51/48 20/48/46 31/47/45
f 31/47/45 32/46/44 48/53/50 47/54/51
f 13/42/40 9/41/39 27/55/26 26/56/25
f 15/30/28 14/29/27 51/57/52 52/58/53
f 13/42/40 26/59/25 43/60/54 50/61/55
f 16/62/32 12/63/31 25/26/24 30/52/49
f 17/64/35 16/62/32 30/52/49 31/47/45
f 25/26/24 12/65/31 49/66/56 42/67/57
f 14/29/27 18/38/36 32/68/44 28/69/43
f 39/44/42 33/70/41 34/71/58 37/31/29
f 33/70/41 38/72/34 35/73/33 34/71/58
f 34/71/58 35/73/33 41/74/38 36/75/37
f 37/31/29 34/71/58 36/75/37 40/32/30
f 13/42/40 12/33/31 38/36/34 33/43/41
f 18/38/36 14/29/27 40/32/30 36/39/37
f 16/76/32 17/37/35 41/40/38 35/77/33
f 15/30/28 9/41/39 39/44/42 37/31/29
f 49/78/56 50/79/55 43/80/54 42/67/57
f 52/58/53 51/57/52 44/81/59 45/82/60
f 53/83/61 52/58/53 45/82/60 46/84/62
f 55/85/63 54/86/64 47/54/51 48/53/50
f 27/87/26 9/41/39 53/83/61 46/88/62
f 9/41/39 15/30/28 52/58/53 53/83/61
f 26/27/25 25/26/24 42/67/57 43/80/54
f 14/29/27 28/89/43 44/90/59 51/57/52
f 28/45/43 29/50/47 45/91/60 44/92/59
f 18/38/36 17/37/35 54/93/64 55/94/63
f 29/49/47 27/28/26 46/95/62 45/96/60
f 17/97/35 31/47/45 47/54/51 54/98/64
f 12/33/31 13/42/40 50/61/55 49/99/56
f 32/100/44 18/38/36 55/94/63 48/101/50
f 6/102/65 3/103/66 63/104/13 62/105/9
f 4/106/67 6/102/65 62/105/9 61/107/2
f 8/108/68 4/106/67 61/107/2 60/109/1
f 2/110/69 8/108/68 60/109/1 59/111/16
f 3/103/66 7/112/70 58/113/71 63/104/13
f 1/114/72 5/115/73 57/116/15 56/117/74
f 7/118/70 1/114/72 56/117/74 58/119/71
f 5/115/73 2/110/69 59/111/16 57/116/15
f 59/18/16 60/1/1 77/4/4 76/19/17
f 24/51/48 11/25/23 70/120/75 74/121/76
f 20/48/46 24/51/48 74/121/76 72/122/77
f 63/15/13 58/123/71 66/124/78 68/16/14
f 11/25/23 21/21/19 65/22/20 70/120/75
f 56/125/74 57/17/15 64/20/18 75/126/79
f 22/23/21 20/48/46 72/122/77 73/24/22
f 58/127/71 56/125/74 75/126/79 66/128/78
f 64/129/18 76/130/17 70/131/75 65/132/20
f 66/133/78 75/134/79 71/135/12 67/136/8
f 75/134/79 64/129/18 65/132/20 71/135/12
f 68/137/14 66/138/78 67/139/8 69/140/7
f 76/130/17 77/141/4 74/142/76 70/131/75
f 77/141/4 78/143/3 72/144/77 74/142/76
f 78/143/3 79/145/10 73/146/22 72/144/77
f 79/145/10 68/137/14 69/140/7 73/146/22
