# Blender v2.80 (sub 57) OBJ File: 'MainCar.blend'
# www.blender.org
mtllib ProjectileCar.mtl
o Projectile_Cube.006
v 0.375141 -0.020761 -0.134089
v -0.204920 -0.002159 -0.163144
v -0.204920 0.159709 -0.001276
v -0.204919 -0.002159 0.160592
v -0.204920 -0.164027 -0.001276
v -0.340024 0.106743 -0.110178
v -0.340024 -0.111061 -0.110178
v -0.340024 -0.111061 0.107626
v -0.340024 0.106743 0.107626
v 0.800817 -0.002159 -0.001276
v 0.325099 0.130654 -0.039907
v 0.375142 0.069569 0.131536
v 0.325099 -0.134971 0.072473
v 0.189154 0.106743 -0.110178
v 0.247514 -0.111061 -0.110178
v 0.095929 -0.111061 0.107626
v 0.095929 0.106743 0.107626
v -0.650065 -0.016422 -0.013425
vt 0.463502 0.326435
vt 0.551992 0.249077
vt 0.479502 0.523156
vt 0.334601 0.637926
vt 0.609037 0.357975
vt 0.715949 0.296269
vt 0.623618 0.578139
vt 0.448505 0.722327
vt 0.315786 0.280787
vt 0.409603 0.237949
vt 0.316129 0.536631
vt 0.192791 0.642397
vt 0.133385 0.114047
vt 0.181759 0.224113
vt 0.022688 0.541620
vt 0.043415 0.388566
vt 0.110874 0.545431
vt 0.214744 0.999915
vt 0.000085 0.661450
vt 0.581521 0.837164
vt 0.715949 0.706763
vt 0.287741 0.167345
vt 0.154879 0.533309
vt 0.678634 0.150989
vt 0.680667 0.284411
vt 0.473714 0.000085
vt 0.156382 0.140140
vt 0.218760 0.021378
vn 0.0419 0.9391 0.3410
vn 0.0498 -0.3222 0.9453
vn 0.0304 0.3462 -0.9377
vn -0.0080 -0.8904 0.4551
vn 0.2541 -0.8712 -0.4201
vn 0.2413 0.5688 -0.7863
vn 0.1887 0.9412 0.2803
vn 0.1923 -0.3154 0.9293
vn 0.0437 -0.9577 -0.2844
vn 0.0170 -0.3794 -0.9251
vn -0.0064 0.4515 0.8922
vn 0.0102 0.9133 -0.4073
vn -0.3641 -0.0013 0.9314
vn -0.3678 0.9299 -0.0041
vn -0.3121 -0.9472 -0.0735
vn -0.3161 -0.0681 -0.9463
vn -0.3641 0.0012 0.9314
vn -0.3680 0.9298 0.0043
vn -0.3157 -0.9464 0.0686
vn -0.3200 0.0628 -0.9453
usemtl Cristal
s off
f 3/1/1 9/2/1 17/3/1 11/4/1
f 4/5/2 8/6/2 16/7/2 12/8/2
f 2/9/3 6/10/3 14/11/3 1/12/3
f 8/13/4 5/14/4 13/15/4 16/16/4
f 15/17/5 1/12/5 10/18/5 13/19/5
f 1/12/6 14/11/6 11/4/6 10/18/6
f 10/18/7 11/4/7 17/3/7 12/8/7
f 13/20/8 10/18/8 12/8/8 16/21/8
f 5/14/9 7/22/9 15/23/9 13/15/9
f 7/22/10 2/9/10 1/12/10 15/23/10
f 9/2/11 4/5/11 12/8/11 17/3/11
f 6/10/12 3/1/12 11/4/12 14/11/12
f 8/24/13 4/25/13 18/26/13
f 9/2/14 3/1/14 18/26/14
f 7/22/15 5/27/15 18/26/15
f 2/9/16 7/22/16 18/26/16
f 4/25/17 9/2/17 18/26/17
f 3/1/18 6/10/18 18/26/18
f 5/27/19 8/28/19 18/26/19
f 6/10/20 2/9/20 18/26/20
